<?xml version="1.0" encoding="utf-8"?>
<!-- Generator: Adobe Illustrator 16.0.0, SVG Export Plug-In . SVG Version: 6.00 Build 0)  -->
<!DOCTYPE svg PUBLIC "-//W3C//DTD SVG 1.1//EN" "http://www.w3.org/Graphics/SVG/1.1/DTD/svg11.dtd">
<svg version="1.1" xmlns="http://www.w3.org/2000/svg" xmlns:xlink="http://www.w3.org/1999/xlink" x="0px" y="0px" width="400px"
	 height="400px" viewBox="0 0 400 400" enable-background="new 0 0 400 400" xml:space="preserve">
<g id="Layer_1" display="none">
	
		<rect x="554.244" y="22.124" display="inline" fill="#64C8D4" stroke="#64C8D4" stroke-width="4" stroke-linejoin="round" stroke-miterlimit="10" width="401.386" height="391.596"/>
	<g display="inline">
		<polygon fill="#FFFFFF" points="543.632,7.597 927.378,48.1 964.444,428.404 580.697,387.896 543.632,7.597 		"/>
	</g>
	<path display="inline" fill="#64C8D4" stroke="#64C8D4" stroke-linejoin="round" stroke-miterlimit="10" d="M856.048,310.926
		h19.293L758.522,108.622l-116.81,202.304h19.293l26.511-39.16h142.001L856.048,310.926z M696.704,252.186L758.522,145.1
		l61.826,107.086H696.704z"/>
	<rect x="-32.5" y="-0.5" display="inline" fill="#3FE1FF" stroke="#000000" stroke-miterlimit="10" width="432" height="432"/>
	<polygon display="inline" points="399,432 14.006,386.225 -33,0 355.085,44.022 	"/>
</g>
<g id="Layer_2" display="none">
	<g display="inline" opacity="0.5">
		<path fill="#3FE1FF" d="M400,419.031c0,6.6-5.4,11.999-12,11.998l-407.958-0.065c-6.6-0.001-12-5.402-12.001-12.002L-31.999,11
			C-32,4.4-26.6-1-20-1l408,0.015c6.6,0,12,5.4,12,12V419.031z"/>
	</g>
	<g display="inline">
		<path d="M399.061,423.085c0.508,4.37-2.652,7.531-7.022,7.023L21.197,387.048c-4.371-0.508-8.365-4.498-8.875-8.869L-31.071,6.961
			c-0.511-4.37,2.647-7.53,7.018-7.021l371.123,43.167c4.37,0.508,8.362,4.5,8.87,8.871L399.061,423.085z"/>
	</g>
</g>
<g id="Layer_3" display="none">
	<g display="inline">
		<polygon fill="#3FE1FF" points="400,-0.984 -32,-1 -32,-0.984 355.016,44.016 399.984,431 400,431 		"/>
	</g>
	<g display="inline">
		<path fill="#3FE1FF" d="M-30.839,8.948c-0.639-5.463-1.161-5.433-1.16,0.067l0.04,411.946c0,5.5,4.501,10.001,10.001,10.002
			l411.942,0.065c5.5,0.001,5.53-0.518,0.066-1.151l-366.868-42.6c-5.463-0.634-10.456-5.623-11.094-11.086L-30.839,8.948z"/>
	</g>
	<polygon display="inline" points="-32,-0.984 -32,-0.984 -32,-0.984 	"/>
	<polygon display="inline" points="399.984,431.031 399.984,431.031 399.984,431.031 	"/>
	<text transform="matrix(1 0 0 1 50 341)" display="inline" fill="#141414" font-family="'Avenir-Medium'" font-size="380.0016">A</text>
</g>
<g id="Layer_4">
	<g>
		<circle fill="#111111" cx="200" cy="200" r="180"/>
	</g>
	<path fill="#E9F3F4" d="M88,305.59c0,3.888,3.157,7.067,7.044,7.068l240.282,0.009c0.949,0,1.847-0.192,2.675-0.534
		c-0.097-0.006-0.195-0.008-0.295-0.02l-208.577-35.424c-2.574-0.299-4.926-2.65-5.225-5.225L88.507,62.899
		c-0.012-0.1,0.01-0.195,0.004-0.292C88.169,63.435,88,64.339,88,65.287V305.59z"/>
	<path fill="#0ADFEF" d="M313,95.684c0-3.887-3.162-7.067-7.049-7.068L65.666,88.607c-0.948,0-1.847,0.192-2.675,0.534
		c0.097,0.005,0.195,0.008,0.295,0.02l208.577,35.423c2.574,0.299,4.926,2.65,5.225,5.225l35.397,208.566
		c0.012,0.1-0.005,0.195,0.001,0.292c0.342-0.827,0.516-1.731,0.516-2.68V95.684z"/>
</g>
<g id="Layer_5" display="none">
	<g display="inline">
		<g>
			<g>
				<path fill="#FFFFFF" d="M166.911,85.567c1.553-3.523,5.973-6.406,9.823-6.406h17.29c3.85,0,8.239,2.896,9.754,6.436
					l103.468,241.764c1.515,3.54-0.396,6.436-4.246,6.436h-26.282c-3.85,0-8.184-2.919-9.632-6.486l-20.272-49.966
					c-1.448-3.567-5.782-6.486-9.632-6.486H129.979c-3.85,0-8.17,2.925-9.6,6.499l-19.977,49.94c-1.43,3.574-5.75,6.499-9.6,6.499
					H64.521c-3.85,0-5.729-2.883-4.177-6.405L166.911,85.567z M224.595,240.646c3.85,0,5.814-2.918,4.366-6.485l-42.206-103.917
					c-1.449-3.567-2.796-6.485-2.994-6.485c-0.198,0-1.561,2.912-3.028,6.472l-42.857,103.944c-1.468,3.56,0.481,6.472,4.332,6.472
					H224.595z"/>
			</g>
		</g>
	</g>
</g>
<g id="Layer_6">
</g>
<g id="Layer_7">
	<path fill="#FFFFFF" d="M149.884,242.711l44.167-85.285h11.804L250,242.711h-16.935l-8.495-16.212h-49.258l-8.517,16.212H149.884z
		 M216.933,212.081l-17.075-32.647l-17.011,32.647H216.933z"/>
</g>
</svg>
